<svg xmlns="http://www.w3.org/2000/svg" xmlns:xlink="http://www.w3.org/1999/xlink" width="500" zoomAndPan="magnify" viewBox="0 0 375 374.999991" height="500" preserveAspectRatio="xMidYMid meet" version="1.0"><defs><clipPath id="434463a37f"><path d="M 0.164062 21 L 375 21 L 375 354 L 0.164062 354 Z M 0.164062 21 " clip-rule="nonzero"/></clipPath></defs><g clip-path="url(#434463a37f)"><path fill="#00d8ff" d="M 308.234375 128.886719 C 304.359375 127.550781 300.339844 126.289062 296.191406 125.09375 C 296.875 122.320312 297.503906 119.582031 298.0625 116.890625 C 307.167969 72.695312 301.21875 37.085938 280.855469 25.363281 C 261.324219 14.125 229.398438 25.84375 197.152344 53.863281 C 194.050781 56.558594 190.9375 59.410156 187.839844 62.398438 C 185.761719 60.421875 183.703125 58.511719 181.640625 56.683594 C 147.84375 26.722656 113.96875 14.097656 93.628906 25.851562 C 74.125 37.125 68.347656 70.597656 76.558594 112.484375 C 77.347656 116.53125 78.277344 120.664062 79.324219 124.863281 C 74.53125 126.222656 69.902344 127.671875 65.472656 129.210938 C 25.851562 143.003906 0.550781 164.621094 0.550781 187.042969 C 0.550781 210.191406 27.714844 233.425781 68.980469 247.511719 C 72.234375 248.621094 75.617188 249.671875 79.097656 250.664062 C 77.96875 255.203125 76.984375 259.65625 76.160156 264.003906 C 68.332031 305.164062 74.445312 337.84375 93.898438 349.039062 C 113.988281 360.613281 147.710938 348.71875 180.542969 320.066406 C 183.144531 317.804688 185.75 315.398438 188.351562 312.886719 C 191.742188 316.125 195.117188 319.207031 198.464844 322.097656 C 230.277344 349.417969 261.691406 360.453125 281.117188 349.230469 C 301.1875 337.625 307.722656 302.507812 299.246094 259.800781 C 298.601562 256.53125 297.839844 253.203125 297.007812 249.820312 C 299.375 249.117188 301.699219 248.386719 303.964844 247.644531 C 346.871094 233.441406 374.777344 210.511719 374.777344 187.042969 C 374.777344 164.539062 348.65625 142.777344 308.234375 128.886719 Z M 298.9375 232.492188 C 296.890625 233.164062 294.785156 233.820312 292.652344 234.449219 C 287.914062 219.488281 281.527344 203.566406 273.691406 187.117188 C 281.160156 171.058594 287.300781 155.347656 291.90625 140.472656 C 295.734375 141.582031 299.449219 142.746094 303.03125 143.976562 C 337.660156 155.882812 358.785156 173.484375 358.785156 187.042969 C 358.785156 201.476562 335.980469 220.234375 298.9375 232.492188 Z M 283.558594 262.894531 C 287.316406 281.78125 287.84375 298.859375 285.355469 312.214844 C 283.136719 324.210938 278.648438 332.210938 273.105469 335.40625 C 261.308594 342.222656 236.09375 333.363281 208.902344 309.996094 C 205.777344 307.3125 202.632812 304.449219 199.488281 301.429688 C 210.03125 289.914062 220.570312 276.527344 230.859375 261.65625 C 248.941406 260.066406 266.03125 257.4375 281.542969 253.863281 C 282.300781 256.941406 282.972656 259.949219 283.558594 262.894531 Z M 128.136719 334.226562 C 116.617188 338.296875 107.4375 338.414062 101.890625 335.21875 C 90.085938 328.414062 85.179688 302.171875 91.871094 266.984375 C 92.640625 262.953125 93.550781 258.808594 94.605469 254.578125 C 109.933594 257.960938 126.902344 260.398438 145.035156 261.859375 C 155.390625 276.410156 166.238281 289.78125 177.160156 301.488281 C 174.777344 303.792969 172.394531 305.984375 170.023438 308.039062 C 155.507812 320.722656 140.960938 329.714844 128.136719 334.226562 Z M 74.15625 232.40625 C 55.910156 226.171875 40.839844 218.085938 30.507812 209.242188 C 21.226562 201.316406 16.542969 193.4375 16.542969 187.042969 C 16.542969 173.441406 36.855469 156.078125 70.742188 144.285156 C 74.851562 142.851562 79.15625 141.503906 83.621094 140.238281 C 88.304688 155.445312 94.449219 171.351562 101.863281 187.421875 C 94.351562 203.738281 88.121094 219.898438 83.394531 235.296875 C 80.207031 234.375 77.125 233.414062 74.15625 232.40625 Z M 92.25 109.421875 C 85.21875 73.53125 89.890625 46.460938 101.644531 39.667969 C 114.164062 32.429688 141.847656 42.75 171.019531 68.617188 C 172.890625 70.273438 174.761719 72 176.648438 73.792969 C 165.769531 85.449219 155.027344 98.71875 144.761719 113.183594 C 127.160156 114.8125 110.3125 117.425781 94.824219 120.933594 C 93.851562 117.019531 92.988281 113.175781 92.25 109.421875 Z M 253.667969 149.21875 C 249.96875 142.832031 246.167969 136.597656 242.292969 130.53125 C 254.238281 132.039062 265.667969 134.039062 276.414062 136.488281 C 273.195312 146.808594 269.175781 157.597656 264.441406 168.667969 C 261.046875 162.226562 257.453125 155.738281 253.667969 149.21875 Z M 187.839844 85.199219 C 195.222656 93.175781 202.605469 102.082031 209.871094 111.742188 C 202.546875 111.398438 195.132812 111.21875 187.664062 111.21875 C 180.269531 111.21875 172.914062 111.394531 165.636719 111.734375 C 172.898438 102.160156 180.355469 93.269531 187.839844 85.199219 Z M 121.59375 149.328125 C 117.894531 155.730469 114.371094 162.183594 111.027344 168.652344 C 106.375 157.625 102.390625 146.785156 99.136719 136.320312 C 109.816406 133.933594 121.203125 131.980469 133.066406 130.503906 C 129.132812 136.625 125.300781 142.90625 121.59375 149.328125 Z M 133.40625 244.710938 C 121.148438 243.351562 109.589844 241.5 98.917969 239.179688 C 102.222656 228.523438 106.292969 217.460938 111.046875 206.191406 C 114.398438 212.65625 117.933594 219.109375 121.65625 225.53125 C 125.449219 232.070312 129.375 238.464844 133.40625 244.710938 Z M 188.277344 290 C 180.707031 281.839844 173.148438 272.804688 165.765625 263.101562 C 172.929688 263.378906 180.238281 263.523438 187.664062 263.523438 C 195.296875 263.523438 202.839844 263.347656 210.25 263.027344 C 202.96875 272.910156 195.601562 281.957031 188.277344 290 Z M 264.585938 205.621094 C 269.585938 217.007812 273.808594 228.011719 277.15625 238.492188 C 266.3125 240.957031 254.585938 242.945312 242.25 244.433594 C 246.136719 238.289062 249.96875 231.9375 253.738281 225.414062 C 257.554688 218.816406 261.164062 212.207031 264.585938 205.621094 Z M 239.882812 217.445312 C 234.035156 227.574219 228.027344 237.238281 221.929688 246.359375 C 210.835938 247.148438 199.359375 247.554688 187.664062 247.554688 C 176.015625 247.554688 164.683594 247.207031 153.78125 246.492188 C 147.433594 237.25 141.304688 227.558594 135.492188 217.53125 C 129.695312 207.535156 124.359375 197.449219 119.523438 187.421875 C 124.355469 177.378906 129.679688 167.28125 135.445312 157.300781 L 135.441406 157.300781 C 141.222656 147.296875 147.304688 137.648438 153.589844 128.460938 C 164.714844 127.621094 176.132812 127.183594 187.664062 127.183594 C 199.257812 127.183594 210.675781 127.625 221.796875 128.46875 C 227.996094 137.589844 234.035156 147.207031 239.835938 157.214844 C 245.699219 167.339844 251.09375 177.367188 255.960938 187.203125 C 251.109375 197.203125 245.730469 207.332031 239.882812 217.445312 Z M 272.859375 39.1875 C 285.402344 46.40625 290.269531 75.503906 282.390625 113.664062 C 281.894531 116.097656 281.324219 118.578125 280.710938 121.09375 C 265.1875 117.515625 248.332031 114.855469 230.6875 113.199219 C 220.394531 98.582031 209.738281 85.289062 199.039062 73.78125 C 201.917969 71.019531 204.796875 68.382812 207.648438 65.898438 C 235.277344 41.894531 261.105469 32.414062 272.859375 39.1875 Z M 187.664062 153.667969 C 206.113281 153.667969 221.082031 168.605469 221.082031 187.039062 C 221.082031 205.457031 206.113281 220.402344 187.664062 220.402344 C 169.214844 220.402344 154.246094 205.457031 154.246094 187.039062 C 154.246094 168.605469 169.214844 153.667969 187.664062 153.667969 Z M 187.664062 153.667969 " fill-opacity="1" fill-rule="nonzero"/></g></svg>