<svg xmlns="http://www.w3.org/2000/svg" xmlns:xlink="http://www.w3.org/1999/xlink" width="500" zoomAndPan="magnify" viewBox="0 0 375 374.999991" height="500" preserveAspectRatio="xMidYMid meet" version="1.0"><defs><g/></defs><g fill="#004aad" fill-opacity="1"><g transform="translate(117.245463, 221.590437)"><g><path d="M 8.019531 0 L 33.5 0 L 33.5 -2.042969 C 28.625 -3.460938 27.207031 -7.078125 27.207031 -19.972656 L 27.207031 -43.5625 L 38.375 -43.5625 C 67.625 -43.5625 82.882812 -58.191406 82.882812 -79.109375 C 82.882812 -94.363281 72.503906 -110.089844 39.945312 -110.089844 L 8.019531 -110.089844 L 8.019531 -108.046875 C 12.738281 -106.628906 14.3125 -103.011719 14.3125 -90.117188 L 14.3125 -19.972656 C 14.3125 -7.078125 12.738281 -3.460938 8.019531 -2.042969 Z M 27.207031 -45.921875 L 27.207031 -107.417969 C 29.09375 -107.574219 31.613281 -107.730469 33.8125 -107.730469 C 59.132812 -107.730469 69.042969 -92.316406 69.042969 -75.492188 C 69.042969 -56.933594 58.191406 -45.921875 38.058594 -45.921875 Z M 27.207031 -45.921875 "/></g></g></g><g fill="#004aad" fill-opacity="1"><g transform="translate(171.027726, 269.042034)"><g><path d="M 44.824219 1.574219 C 63.378906 1.574219 81.625 -10.378906 81.625 -30.039062 C 81.625 -47.808594 65.269531 -54.730469 47.808594 -61.652344 C 34.441406 -67.15625 18.242188 -73.132812 18.242188 -87.914062 C 18.242188 -101.28125 29.09375 -108.675781 41.835938 -108.675781 C 59.761719 -108.675781 70.773438 -98.921875 76.589844 -85.242188 L 78.164062 -85.714844 L 77.535156 -103.957031 C 71.402344 -107.257812 61.179688 -111.191406 46.867188 -111.191406 C 23.746094 -111.191406 8.492188 -99.554688 8.492188 -81.152344 C 8.492188 -64.480469 20.289062 -57.875 38.847656 -50.484375 C 52.058594 -45.136719 71.402344 -37.902344 71.402344 -22.175781 C 71.402344 -9.4375 60.550781 -1.257812 47.96875 -1.257812 C 26.105469 -1.257812 14.15625 -15.253906 8.019531 -31.769531 L 6.289062 -31.453125 L 7.078125 -9.59375 C 14.46875 -4.246094 28.308594 1.574219 44.824219 1.574219 Z M 44.824219 1.574219 "/></g></g></g></svg>