<svg xmlns="http://www.w3.org/2000/svg" xmlns:xlink="http://www.w3.org/1999/xlink" width="500" zoomAndPan="magnify" viewBox="0 0 375 374.999991" height="500" preserveAspectRatio="xMidYMid meet" version="1.0"><defs><g/></defs><g fill="#004aad" fill-opacity="1"><g transform="translate(43.366349, 257.189169)"><g><path d="M 14.984375 0 L 62.589844 0 L 62.589844 -3.820312 C 53.480469 -6.464844 50.835938 -13.222656 50.835938 -37.316406 L 50.835938 -81.394531 L 71.695312 -81.394531 C 126.351562 -81.394531 154.855469 -108.722656 154.855469 -147.800781 C 154.855469 -176.304688 135.460938 -205.6875 74.636719 -205.6875 L 14.984375 -205.6875 L 14.984375 -201.867188 C 23.800781 -199.222656 26.738281 -192.464844 26.738281 -168.371094 L 26.738281 -37.316406 C 26.738281 -13.222656 23.800781 -6.464844 14.984375 -3.820312 Z M 50.835938 -85.800781 L 50.835938 -200.691406 C 54.359375 -200.988281 59.0625 -201.28125 63.175781 -201.28125 C 110.484375 -201.28125 128.996094 -172.484375 128.996094 -141.042969 C 128.996094 -106.371094 108.722656 -85.800781 71.109375 -85.800781 Z M 50.835938 -85.800781 "/></g></g></g><g fill="#004aad" fill-opacity="1"><g transform="translate(156.64701, 318.435982)"><g><path d="M 83.667969 2.9375 C 118.308594 2.9375 152.363281 -19.375 152.363281 -56.070312 C 152.363281 -89.246094 121.832031 -102.164062 89.246094 -115.078125 C 64.292969 -125.355469 34.054688 -136.511719 34.054688 -164.105469 C 34.054688 -189.058594 54.308594 -202.855469 78.089844 -202.855469 C 111.558594 -202.855469 132.105469 -184.65625 142.96875 -159.113281 L 145.90625 -159.996094 L 144.730469 -194.050781 C 133.28125 -200.214844 114.199219 -207.554688 87.484375 -207.554688 C 44.328125 -207.554688 15.851562 -185.828125 15.851562 -151.480469 C 15.851562 -120.363281 37.871094 -108.035156 72.511719 -94.234375 C 97.171875 -84.253906 133.28125 -70.75 133.28125 -41.394531 C 133.28125 -17.613281 113.023438 -2.347656 89.539062 -2.347656 C 48.734375 -2.347656 26.421875 -28.476562 14.972656 -59.300781 L 11.742188 -58.714844 L 13.210938 -17.90625 C 27.007812 -7.925781 52.84375 2.9375 83.667969 2.9375 Z M 83.667969 2.9375 "/></g></g></g></svg>