<svg xmlns="http://www.w3.org/2000/svg" xmlns:xlink="http://www.w3.org/1999/xlink" width="500" zoomAndPan="magnify" viewBox="0 0 375 374.999991" height="500" preserveAspectRatio="xMidYMid meet" version="1.0"><defs><g/></defs><g fill="#004aad" fill-opacity="1"><g transform="translate(36.945526, 268.647246)"><g><path d="M 16.140625 0 L 67.410156 0 L 67.410156 -4.113281 C 57.601562 -6.960938 54.753906 -14.242188 54.753906 -40.195312 L 54.753906 -87.667969 L 77.222656 -87.667969 C 136.089844 -87.667969 166.789062 -117.101562 166.789062 -159.191406 C 166.789062 -189.890625 145.898438 -221.539062 80.386719 -221.539062 L 16.140625 -221.539062 L 16.140625 -217.425781 C 25.636719 -214.578125 28.800781 -207.296875 28.800781 -181.347656 L 28.800781 -40.195312 C 28.800781 -14.242188 25.636719 -6.960938 16.140625 -4.113281 Z M 54.753906 -92.414062 L 54.753906 -216.160156 C 58.550781 -216.476562 63.613281 -216.792969 68.042969 -216.792969 C 119 -216.792969 138.9375 -185.777344 138.9375 -151.914062 C 138.9375 -114.566406 117.101562 -92.414062 76.589844 -92.414062 Z M 54.753906 -92.414062 "/></g></g></g><g fill="#004aad" fill-opacity="1"><g transform="translate(163.638768, 322.26601)"><g><path d="M 90.09375 3.160156 C 127.394531 3.160156 164.066406 -20.863281 164.066406 -60.378906 C 164.066406 -96.101562 131.1875 -110.007812 96.101562 -123.917969 C 69.230469 -134.980469 36.667969 -146.996094 36.667969 -176.710938 C 36.667969 -203.578125 58.480469 -218.4375 84.085938 -218.4375 C 120.125 -218.4375 142.253906 -198.839844 153.949219 -171.335938 L 157.109375 -172.285156 L 155.847656 -208.953125 C 143.519531 -215.59375 122.96875 -223.496094 94.203125 -223.496094 C 47.734375 -223.496094 17.070312 -200.101562 17.070312 -163.117188 C 17.070312 -129.609375 40.777344 -116.332031 78.082031 -101.472656 C 104.636719 -90.726562 143.519531 -76.183594 143.519531 -44.574219 C 143.519531 -18.96875 121.707031 -2.527344 96.414062 -2.527344 C 52.476562 -2.527344 28.449219 -30.664062 16.121094 -63.855469 L 12.644531 -63.222656 L 14.226562 -19.28125 C 29.082031 -8.535156 56.902344 3.160156 90.09375 3.160156 Z M 90.09375 3.160156 "/></g></g></g></svg>