<svg xmlns="http://www.w3.org/2000/svg" xmlns:xlink="http://www.w3.org/1999/xlink" width="500" zoomAndPan="magnify" viewBox="0 0 375 374.999991" height="500" preserveAspectRatio="xMidYMid meet" version="1.0"><defs><clipPath id="ad0cd2d6a7"><path d="M 3.578125 0 L 187.328125 0 L 187.328125 210 L 3.578125 210 Z M 3.578125 0 " clip-rule="nonzero"/></clipPath><clipPath id="1f8b8b6f28"><path d="M 187.5 165.503906 L 375 165.503906 L 375 374.753906 L 187.5 374.753906 Z M 187.5 165.503906 " clip-rule="nonzero"/></clipPath></defs><g clip-path="url(#ad0cd2d6a7)"><path fill="#e44d26" d="M 20.257812 188.417969 L 3.527344 0.75 L 187.378906 0.75 L 170.632812 188.390625 L 95.335938 209.253906 Z M 20.257812 188.417969 " fill-opacity="1" fill-rule="nonzero"/></g><path fill="#f16529" d="M 156.292969 176.441406 L 170.609375 16.097656 L 95.453125 16.097656 L 95.453125 193.3125 Z M 156.292969 176.441406 " fill-opacity="1" fill-rule="nonzero"/><path fill="#ebebeb" d="M 95.375 39.109375 L 37.734375 39.109375 L 43.945312 108.714844 L 95.453125 108.714844 L 95.453125 85.699219 L 64.996094 85.699219 L 62.894531 62.132812 L 95.453125 62.132812 L 95.453125 39.109375 Z M 95.453125 145.398438 L 95.355469 145.425781 L 69.722656 138.503906 L 68.09375 120.148438 L 44.972656 120.148438 L 48.199219 156.285156 L 95.347656 169.320312 L 95.453125 169.285156 Z M 95.453125 145.398438 " fill-opacity="1" fill-rule="nonzero"/><path fill="#ffffff" d="M 95.375 108.714844 L 123.71875 108.714844 L 121.113281 138.558594 L 95.441406 145.484375 L 95.441406 169.429688 L 142.628906 156.351562 L 148.949219 85.6875 L 95.453125 85.6875 Z M 152.480469 45.289062 L 153.027344 39.109375 L 95.363281 39.109375 L 95.363281 62.125 L 150.957031 62.125 L 151.414062 56.953125 Z M 152.480469 45.289062 " fill-opacity="1" fill-rule="nonzero"/><g clip-path="url(#1f8b8b6f28)"><path fill="#0277bd" d="M 374.972656 165.503906 L 187.527344 165.503906 L 204.066406 352.726562 L 281.25 374.753906 L 358.433594 352.726562 Z M 374.972656 165.503906 " fill-opacity="1" fill-rule="nonzero"/></g><path fill="#039be5" d="M 281.25 182.023438 L 281.25 357.683594 L 342.996094 340.0625 L 356.777344 182.023438 Z M 281.25 182.023438 " fill-opacity="1" fill-rule="nonzero"/><path fill="#ffffff" d="M 331.417969 209.554688 L 281.25 209.554688 L 281.25 231.582031 L 308.265625 231.582031 L 306.609375 253.609375 L 281.25 253.609375 L 281.25 275.632812 L 305.507812 275.632812 L 303.851562 300.414062 L 281.25 308.125 L 281.25 331.25 L 324.804688 316.933594 L 328.664062 253.609375 Z M 331.417969 209.554688 " fill-opacity="1" fill-rule="nonzero"/><path fill="#eeeeee" d="M 281.25 209.554688 L 281.25 231.582031 L 232.183594 231.582031 L 230.53125 209.554688 Z M 255.890625 253.609375 L 256.992188 275.632812 L 281.25 275.632812 L 281.25 253.609375 Z M 258.09375 286.648438 L 236.042969 286.648438 L 237.695312 316.933594 L 281.25 331.25 L 281.25 308.125 L 258.644531 300.414062 Z M 258.09375 286.648438 " fill-opacity="1" fill-rule="nonzero"/></svg>