<svg xmlns="http://www.w3.org/2000/svg" xmlns:xlink="http://www.w3.org/1999/xlink" width="500" zoomAndPan="magnify" viewBox="0 0 375 374.999991" height="500" preserveAspectRatio="xMidYMid meet" version="1.0"><defs><clipPath id="3524afd31a"><path d="M 0.375 21.726562 L 375 21.726562 L 375 353.226562 L 0.375 353.226562 Z M 0.375 21.726562 " clip-rule="nonzero"/></clipPath></defs><path fill="#c6dff1" d="M 310.984375 347.882812 L 64.761719 347.882812 C 32.242188 347.882812 5.882812 321.546875 5.882812 289.066406 L 5.882812 85.890625 C 5.882812 53.40625 32.242188 27.074219 64.761719 27.074219 L 310.984375 27.074219 C 343.503906 27.074219 369.863281 53.40625 369.863281 85.890625 L 369.863281 289.066406 C 369.863281 321.546875 343.503906 347.882812 310.984375 347.882812 Z M 310.984375 347.882812 " fill-opacity="1" fill-rule="nonzero"/><g clip-path="url(#3524afd31a)"><path fill="#1f212b" d="M 310.984375 353.226562 L 64.761719 353.226562 C 29.34375 353.226562 0.527344 324.445312 0.527344 289.066406 L 0.527344 85.890625 C 0.527344 50.507812 29.34375 21.726562 64.761719 21.726562 L 310.984375 21.726562 C 346.402344 21.726562 375.21875 50.507812 375.21875 85.890625 L 375.21875 289.066406 C 375.21875 324.445312 346.402344 353.226562 310.984375 353.226562 Z M 64.761719 32.421875 C 35.246094 32.421875 11.234375 56.40625 11.234375 85.890625 L 11.234375 289.066406 C 11.234375 318.546875 35.246094 342.535156 64.761719 342.535156 L 310.984375 342.535156 C 340.5 342.535156 364.511719 318.546875 364.511719 289.066406 L 364.511719 85.890625 C 364.511719 56.40625 340.5 32.421875 310.984375 32.421875 Z M 64.761719 32.421875 " fill-opacity="1" fill-rule="nonzero"/></g><path fill="#1f212b" d="M 310.984375 326.492188 L 64.761719 326.492188 C 44.101562 326.492188 27.292969 309.703125 27.292969 289.066406 L 27.292969 85.890625 C 27.292969 65.25 44.101562 48.460938 64.761719 48.460938 L 286.898438 48.460938 C 288.375 48.460938 289.574219 49.660156 289.574219 51.136719 C 289.574219 52.609375 288.375 53.808594 286.898438 53.808594 L 64.761719 53.808594 C 47.050781 53.808594 32.644531 68.195312 32.644531 85.890625 L 32.644531 289.066406 C 32.644531 306.757812 47.050781 321.148438 64.761719 321.148438 L 310.984375 321.148438 C 328.699219 321.148438 343.101562 306.757812 343.101562 289.066406 L 343.101562 206.191406 C 343.101562 204.714844 344.300781 203.519531 345.777344 203.519531 C 347.253906 203.519531 348.453125 204.714844 348.453125 206.191406 L 348.453125 289.066406 C 348.453125 309.703125 331.648438 326.492188 310.984375 326.492188 Z M 310.984375 326.492188 " fill-opacity="1" fill-rule="nonzero"/><path fill="#1f212b" d="M 345.777344 155.398438 C 344.300781 155.398438 343.101562 154.199219 343.101562 152.722656 L 343.101562 142.03125 C 343.101562 140.554688 344.300781 139.355469 345.777344 139.355469 C 347.253906 139.355469 348.453125 140.554688 348.453125 142.03125 L 348.453125 152.722656 C 348.453125 154.199219 347.253906 155.398438 345.777344 155.398438 Z M 345.777344 155.398438 " fill-opacity="1" fill-rule="nonzero"/><path fill="#1f212b" d="M 345.777344 192.824219 C 344.300781 192.824219 343.101562 191.625 343.101562 190.152344 L 343.101562 168.765625 C 343.101562 167.289062 344.300781 166.089844 345.777344 166.089844 C 347.253906 166.089844 348.453125 167.289062 348.453125 168.765625 L 348.453125 190.152344 C 348.453125 191.625 347.253906 192.824219 345.777344 192.824219 Z M 345.777344 192.824219 " fill-opacity="1" fill-rule="nonzero"/><path fill="#1f212b" d="M 80.820312 240.710938 C 80.820312 240.496094 80.921875 240.070312 81.140625 239.433594 L 113.839844 133.324219 C 114.777344 130.21875 117.492188 128.664062 121.980469 128.664062 C 126.472656 128.664062 129.1875 130.230469 130.128906 133.359375 L 162.941406 239.847656 C 162.941406 240.050781 162.96875 240.25 163.019531 240.449219 C 163.074219 240.644531 163.101562 240.796875 163.101562 240.898438 C 163.101562 242.296875 162.222656 243.542969 160.46875 244.640625 C 158.710938 245.742188 156.816406 246.292969 154.800781 246.292969 C 152.246094 246.292969 150.644531 245.285156 150.003906 243.277344 L 142.976562 219.636719 L 100.695312 219.636719 L 93.6875 243.195312 C 93.054688 245.261719 91.4375 246.292969 88.820312 246.292969 C 86.9375 246.292969 85.132812 245.761719 83.40625 244.695312 C 81.679688 243.636719 80.820312 242.296875 80.820312 240.710938 Z M 104.019531 208.464844 L 139.667969 208.464844 L 121.890625 148.34375 Z M 104.019531 208.464844 " fill-opacity="1" fill-rule="nonzero"/><path fill="#1f212b" d="M 181.320312 241.507812 L 181.320312 134.25 C 181.320312 132.972656 181.832031 131.882812 182.84375 130.972656 C 183.855469 130.074219 185.160156 129.621094 186.761719 129.621094 L 216.960938 129.621094 C 227.1875 129.621094 235.382812 132.390625 241.566406 137.917969 C 247.742188 143.453125 250.832031 152.171875 250.832031 164.089844 L 250.832031 165.523438 C 250.832031 177.445312 247.691406 186.195312 241.40625 191.777344 C 235.121094 197.363281 226.761719 200.15625 216.324219 200.15625 L 194.75 200.15625 L 194.75 241.496094 C 194.75 242.988281 194.082031 244.152344 192.753906 245.003906 C 191.410156 245.871094 189.84375 246.292969 188.035156 246.292969 C 186.226562 246.292969 184.652344 245.871094 183.324219 245.015625 C 181.984375 244.164062 181.320312 243 181.320312 241.507812 Z M 194.746094 188.996094 L 216.316406 188.996094 C 223.023438 188.996094 228.222656 187.101562 231.894531 183.328125 C 235.566406 179.546875 237.40625 173.882812 237.40625 166.324219 L 237.40625 164.410156 C 237.40625 156.863281 235.566406 151.195312 231.894531 147.414062 C 228.214844 143.640625 223.023438 141.746094 216.316406 141.746094 L 194.746094 141.746094 Z M 194.746094 188.996094 " fill-opacity="1" fill-rule="nonzero"/><path fill="#1f212b" d="M 270.796875 241.507812 L 270.796875 134.25 C 270.796875 132.757812 271.460938 131.621094 272.792969 130.816406 C 274.125 130.019531 275.695312 129.621094 277.503906 129.621094 C 279.3125 129.621094 280.882812 130.019531 282.214844 130.816406 C 283.554688 131.621094 284.222656 132.765625 284.222656 134.25 L 284.222656 241.5 C 284.222656 242.992188 283.554688 244.160156 282.226562 245.007812 C 280.890625 245.871094 279.324219 246.292969 277.507812 246.292969 C 275.699219 246.292969 274.125 245.871094 272.800781 245.015625 C 271.464844 244.164062 270.796875 243 270.796875 241.507812 Z M 270.796875 241.507812 " fill-opacity="1" fill-rule="nonzero"/></svg>